<svg width="138" height="69" viewBox="0 0 138 69" fill="none" xmlns="http://www.w3.org/2000/svg">
<path d="M22.2727 62L29.9091 15.4545H34.4545L26.8182 62H22.2727ZM1.09091 49.0909L1.81818 44.5455H36.5455L35.8182 49.0909H1.09091ZM5.90909 62L13.5455 15.4545H18.0909L10.4545 62H5.90909ZM3.81818 32.9091L4.54545 28.3636H39.2727L38.5455 32.9091H3.81818Z" fill="#11A75F"/>
<path d="M27.4941 44.7715C27.4941 42.252 28.1035 40.0371 29.3223 38.127C30.541 36.2051 32.3223 35.2441 34.666 35.2441C36.0137 35.2441 37.0918 35.4668 37.9004 35.9121C38.709 36.3574 39.4355 36.9668 40.0801 37.7402H40.1152C40.0918 37.3887 40.0801 37.0312 40.0801 36.668V28.8457C40.0801 28.3184 40.3438 28.0547 40.8711 28.0547H42.3828C42.9102 28.0547 43.1738 28.3184 43.1738 28.8457V53.209C43.1738 53.7363 42.9102 54 42.3828 54H40.9062C40.4844 54 40.2559 53.7363 40.2207 53.209L40.1152 51.8027H40.0801C39.4355 52.5762 38.709 53.1855 37.9004 53.6309C37.0918 54.0762 36.0137 54.2988 34.666 54.2988C32.3223 54.2988 30.541 53.3438 29.3223 51.4336C28.1035 49.5117 27.4941 47.291 27.4941 44.7715ZM30.7637 44.7715C30.7637 46.9277 31.1328 48.6738 31.8711 50.0098C32.6211 51.3457 33.8867 52.0137 35.668 52.0137C36.9336 52.0137 37.9824 51.5859 38.8145 50.7305C39.6582 49.8633 40.0801 48.5508 40.0801 46.793V42.75C40.0801 40.9922 39.6582 39.6855 38.8145 38.8301C37.9824 37.9629 36.9336 37.5293 35.668 37.5293C33.8867 37.5293 32.6211 38.1973 31.8711 39.5332C31.1328 40.8691 30.7637 42.6152 30.7637 44.7715ZM47.1816 44.7715C47.1816 41.8652 47.9082 39.5508 49.3613 37.8281C50.8145 36.1055 52.8945 35.2441 55.6016 35.2441C57.8516 35.2441 59.7148 36.0352 61.1914 37.6172C62.6797 39.1875 63.4238 41.7012 63.4238 45.1582C63.4238 45.6855 63.1836 45.9492 62.7031 45.9492H50.4512C50.6504 48.2109 51.2598 49.7871 52.2793 50.6777C53.2988 51.5566 54.4531 51.9961 55.7422 51.9961C57.1016 51.9961 58.1445 51.7676 58.8711 51.3105C59.5977 50.8535 60.1309 50.4023 60.4707 49.957C60.8457 49.4648 61.209 49.3711 61.5605 49.6758L62.5977 50.5723C62.8672 50.8066 62.8672 51.1289 62.5977 51.5391C62.375 51.8789 61.7363 52.4238 60.6816 53.1738C59.6387 53.9238 57.9922 54.2988 55.7422 54.2988C52.8125 54.2988 50.6504 53.4375 49.2559 51.7148C47.873 49.9922 47.1816 47.6777 47.1816 44.7715ZM50.3809 43.6641H60.3125C60.2656 42.0234 59.8438 40.5879 59.0469 39.3574C58.25 38.1152 57.0781 37.4941 55.5312 37.4941C54.1719 37.4941 53.0176 37.9512 52.0684 38.8652C51.1191 39.7676 50.5566 41.3672 50.3809 43.6641ZM66.7637 52.2773C66.4004 51.9375 66.3242 51.6211 66.5352 51.3281L67.3262 50.2207C67.584 49.8691 67.9648 49.8867 68.4688 50.2734C69.1602 50.8008 69.9277 51.2227 70.7715 51.5391C71.627 51.8555 72.5996 52.0137 73.6895 52.0137C74.334 52.0137 74.9082 51.9375 75.4121 51.7852C75.916 51.6211 76.3555 51.3223 76.7305 50.8887C77.1172 50.4551 77.3105 49.875 77.3105 49.1484C77.3105 48.7266 77.2168 48.3281 77.0293 47.9531C76.8535 47.5781 76.5723 47.2793 76.1855 47.0566C75.8105 46.8223 75.4414 46.6406 75.0781 46.5117C74.4805 46.2891 73.8828 46.1074 73.2852 45.9668C72.6992 45.8145 71.9258 45.5859 70.9648 45.2812C70.3203 45.082 69.7109 44.8008 69.1367 44.4375C68.5625 44.0625 68.0586 43.5586 67.625 42.9258C67.2031 42.293 66.9922 41.4199 66.9922 40.3066C66.9922 39.1699 67.3379 38.1914 68.0293 37.3711C68.7207 36.5508 69.5879 35.9941 70.6309 35.7012C71.6738 35.3965 72.6875 35.2441 73.6719 35.2441C75.125 35.2441 76.291 35.4141 77.1699 35.7539C78.0605 36.082 78.8281 36.4746 79.4727 36.9316C79.8477 37.2012 79.9004 37.5117 79.6309 37.8633L78.8398 38.918C78.5938 39.2578 78.2129 39.2461 77.6973 38.8828C77.2637 38.5781 76.6484 38.291 75.8516 38.0215C75.0547 37.752 74.3574 37.6172 73.7598 37.6172C73.0215 37.6172 72.3887 37.6992 71.8613 37.8633C71.334 38.0273 70.9062 38.3086 70.5781 38.707C70.25 39.1055 70.0859 39.5742 70.0859 40.1133C70.0859 40.5234 70.1504 40.8926 70.2793 41.2207C70.4082 41.5371 70.6484 41.8301 71 42.0996C71.3516 42.3691 71.8438 42.5859 72.4766 42.75C73.4609 43.0078 74.3574 43.2422 75.166 43.4531C75.9863 43.6641 76.7246 43.9219 77.3809 44.2266C78.2363 44.625 78.8926 45.0645 79.3496 45.5449C79.8184 46.0254 80.1406 46.5469 80.3164 47.1094C80.4922 47.6602 80.5801 48.2754 80.5801 48.9551C80.5801 50.209 80.2051 51.2695 79.4551 52.1367C78.7168 53.0039 77.8906 53.584 76.9766 53.877C76.0625 54.1582 74.9609 54.2988 73.6719 54.2988C71.9258 54.2988 70.4258 54.0527 69.1719 53.5605C67.9297 53.0566 67.127 52.6289 66.7637 52.2773ZM84.8691 54C84.3418 54 84.0781 53.7363 84.0781 53.209V36.334C84.0781 35.8066 84.3418 35.543 84.8691 35.543H86.3809C86.9082 35.543 87.1719 35.8066 87.1719 36.334V53.209C87.1719 53.7363 86.9082 54 86.3809 54H84.8691ZM84.8691 32.2031C84.3418 32.2031 84.0781 31.9395 84.0781 31.4121V29.9004C84.0781 29.373 84.3418 29.1094 84.8691 29.1094H86.3809C86.9082 29.1094 87.1719 29.373 87.1719 29.9004V31.4121C87.1719 31.9395 86.9082 32.2031 86.3809 32.2031H84.8691ZM91.1621 44.7715C91.1621 42.252 91.7715 40.0371 92.9902 38.127C94.209 36.2051 95.9902 35.2441 98.334 35.2441C99.6816 35.2441 100.76 35.4668 101.568 35.9121C102.377 36.3574 103.104 36.9668 103.748 37.7402H103.783L103.889 36.334C103.924 35.8066 104.152 35.543 104.574 35.543H106.051C106.578 35.543 106.842 35.8066 106.842 36.334V54.1406C106.842 56.3906 106.32 58.1484 105.277 59.4141C104.246 60.6914 102.201 61.3301 99.1426 61.3301C97.0918 61.3301 95.5566 61.0957 94.5371 60.627C93.5176 60.1699 92.791 59.6836 92.3574 59.168C92.041 58.7812 92.0234 58.4531 92.3047 58.1836L93.2715 57.2344C93.541 56.9766 93.916 57.0586 94.3965 57.4805C95.0176 58.043 95.6152 58.4414 96.1895 58.6758C96.7637 58.9219 97.7539 59.0449 99.1602 59.0449C100.754 59.0449 101.914 58.7051 102.641 58.0254C103.379 57.3457 103.748 55.9395 103.748 53.8066V52.752C103.748 52.3887 103.76 52.0312 103.783 51.6797H103.748C103.139 52.4883 102.418 53.127 101.586 53.5957C100.766 54.0645 99.6816 54.2988 98.334 54.2988C95.9902 54.2988 94.209 53.3438 92.9902 51.4336C91.7715 49.5117 91.1621 47.291 91.1621 44.7715ZM94.4316 44.7715C94.4316 46.9277 94.8008 48.6738 95.5391 50.0098C96.2891 51.3457 97.5547 52.0137 99.3359 52.0137C100.602 52.0137 101.65 51.5859 102.482 50.7305C103.326 49.8633 103.748 48.5508 103.748 46.793V42.75C103.748 40.9922 103.326 39.6855 102.482 38.8301C101.65 37.9629 100.602 37.5293 99.3359 37.5293C97.5547 37.5293 96.2891 38.1973 95.5391 39.5332C94.8008 40.8691 94.4316 42.6152 94.4316 44.7715ZM112.643 54C112.115 54 111.852 53.7363 111.852 53.209V36.334C111.852 35.8066 112.115 35.543 112.643 35.543H114.119C114.646 35.543 114.91 35.8066 114.91 36.334V37.7402H114.98C115.742 36.8965 116.562 36.2695 117.441 35.8594C118.32 35.4492 119.416 35.2441 120.729 35.2441C122.861 35.2441 124.391 35.8477 125.316 37.0547C126.254 38.25 126.723 39.8906 126.723 41.9766V53.209C126.723 53.7363 126.459 54 125.932 54H124.42C123.893 54 123.629 53.7363 123.629 53.209V42.8203C123.629 40.5234 123.248 39.0703 122.486 38.4609C121.725 37.8398 120.758 37.5293 119.586 37.5293C118.062 37.5293 116.908 37.9863 116.123 38.9004C115.338 39.8027 114.945 41.3555 114.945 43.5586V53.209C114.945 53.7363 114.682 54 114.154 54H112.643Z" fill="white"/>
</svg>
